REM DIRINDEX 1\2,1\3
REM DIRNAME folder01,folder02,folder03
TITLE ""
FILE "Disk1Track12.mp3" MP3
  TRACK 01 AUDIO
    TITLE "2:cjc052_0064"
    INDEX 01 00:00:00
  TRACK 02 AUDIO
    TITLE "2:cjc052_0065"
    INDEX 01 00:06:39
  TRACK 03 AUDIO
    TITLE "2:cjc052_0066"
    INDEX 01 00:17:37
  TRACK 04 AUDIO
    TITLE "2:cjc052_0067"
    INDEX 01 00:28:74
  TRACK 05 AUDIO
    TITLE "0:"
    INDEX 01 00:47:11
